<svg width="14" height="12" viewBox="0 0 14 12" fill="none" xmlns="http://www.w3.org/2000/svg">
<path d="M8.33333 3.33341V2.00008C8.33333 1.64646 8.19286 1.30732 7.94281 1.05727C7.69276 0.807224 7.35362 0.666748 7 0.666748H2.33333C1.97971 0.666748 1.64057 0.807224 1.39052 1.05727C1.14048 1.30732 1 1.64646 1 2.00008V10.0001C1 10.3537 1.14048 10.6928 1.39052 10.9429C1.64057 11.1929 1.97971 11.3334 2.33333 11.3334H7C7.35362 11.3334 7.69276 11.1929 7.94281 10.9429C8.19286 10.6928 8.33333 10.3537 8.33333 10.0001V8.66675M5 6.00008H13M13 6.00008L11 4.00008M13 6.00008L11 8.00008" stroke="#0A0A0A" stroke-linecap="round" stroke-linejoin="round"/>
</svg>
