<svg width="24" height="25" viewBox="0 0 24 25" fill="none" xmlns="http://www.w3.org/2000/svg">
<path d="M4 5.5C4 5.76522 4.10536 6.01957 4.29289 6.20711C4.48043 6.39464 4.73478 6.5 5 6.5C5.26522 6.5 5.51957 6.39464 5.70711 6.20711C5.89464 6.01957 6 5.76522 6 5.5C6 5.23478 5.89464 4.98043 5.70711 4.79289C5.51957 4.60536 5.26522 4.5 5 4.5C4.73478 4.5 4.48043 4.60536 4.29289 4.79289C4.10536 4.98043 4 5.23478 4 5.5Z" stroke="#A6A6A6" stroke-width="2" stroke-linecap="round" stroke-linejoin="round"/>
<path d="M11 5.5C11 5.76522 11.1054 6.01957 11.2929 6.20711C11.4804 6.39464 11.7348 6.5 12 6.5C12.2652 6.5 12.5196 6.39464 12.7071 6.20711C12.8946 6.01957 13 5.76522 13 5.5C13 5.23478 12.8946 4.98043 12.7071 4.79289C12.5196 4.60536 12.2652 4.5 12 4.5C11.7348 4.5 11.4804 4.60536 11.2929 4.79289C11.1054 4.98043 11 5.23478 11 5.5Z" stroke="#A6A6A6" stroke-width="2" stroke-linecap="round" stroke-linejoin="round"/>
<path d="M18 5.5C18 5.76522 18.1054 6.01957 18.2929 6.20711C18.4804 6.39464 18.7348 6.5 19 6.5C19.2652 6.5 19.5196 6.39464 19.7071 6.20711C19.8946 6.01957 20 5.76522 20 5.5C20 5.23478 19.8946 4.98043 19.7071 4.79289C19.5196 4.60536 19.2652 4.5 19 4.5C18.7348 4.5 18.4804 4.60536 18.2929 4.79289C18.1054 4.98043 18 5.23478 18 5.5Z" stroke="#A6A6A6" stroke-width="2" stroke-linecap="round" stroke-linejoin="round"/>
<path d="M4 12.5C4 12.7652 4.10536 13.0196 4.29289 13.2071C4.48043 13.3946 4.73478 13.5 5 13.5C5.26522 13.5 5.51957 13.3946 5.70711 13.2071C5.89464 13.0196 6 12.7652 6 12.5C6 12.2348 5.89464 11.9804 5.70711 11.7929C5.51957 11.6054 5.26522 11.5 5 11.5C4.73478 11.5 4.48043 11.6054 4.29289 11.7929C4.10536 11.9804 4 12.2348 4 12.5Z" stroke="#A6A6A6" stroke-width="2" stroke-linecap="round" stroke-linejoin="round"/>
<path d="M11 12.5C11 12.7652 11.1054 13.0196 11.2929 13.2071C11.4804 13.3946 11.7348 13.5 12 13.5C12.2652 13.5 12.5196 13.3946 12.7071 13.2071C12.8946 13.0196 13 12.7652 13 12.5C13 12.2348 12.8946 11.9804 12.7071 11.7929C12.5196 11.6054 12.2652 11.5 12 11.5C11.7348 11.5 11.4804 11.6054 11.2929 11.7929C11.1054 11.9804 11 12.2348 11 12.5Z" stroke="#A6A6A6" stroke-width="2" stroke-linecap="round" stroke-linejoin="round"/>
<path d="M18 12.5C18 12.7652 18.1054 13.0196 18.2929 13.2071C18.4804 13.3946 18.7348 13.5 19 13.5C19.2652 13.5 19.5196 13.3946 19.7071 13.2071C19.8946 13.0196 20 12.7652 20 12.5C20 12.2348 19.8946 11.9804 19.7071 11.7929C19.5196 11.6054 19.2652 11.5 19 11.5C18.7348 11.5 18.4804 11.6054 18.2929 11.7929C18.1054 11.9804 18 12.2348 18 12.5Z" stroke="#A6A6A6" stroke-width="2" stroke-linecap="round" stroke-linejoin="round"/>
<path d="M4 19.5C4 19.7652 4.10536 20.0196 4.29289 20.2071C4.48043 20.3946 4.73478 20.5 5 20.5C5.26522 20.5 5.51957 20.3946 5.70711 20.2071C5.89464 20.0196 6 19.7652 6 19.5C6 19.2348 5.89464 18.9804 5.70711 18.7929C5.51957 18.6054 5.26522 18.5 5 18.5C4.73478 18.5 4.48043 18.6054 4.29289 18.7929C4.10536 18.9804 4 19.2348 4 19.5Z" stroke="#A6A6A6" stroke-width="2" stroke-linecap="round" stroke-linejoin="round"/>
<path d="M11 19.5C11 19.7652 11.1054 20.0196 11.2929 20.2071C11.4804 20.3946 11.7348 20.5 12 20.5C12.2652 20.5 12.5196 20.3946 12.7071 20.2071C12.8946 20.0196 13 19.7652 13 19.5C13 19.2348 12.8946 18.9804 12.7071 18.7929C12.5196 18.6054 12.2652 18.5 12 18.5C11.7348 18.5 11.4804 18.6054 11.2929 18.7929C11.1054 18.9804 11 19.2348 11 19.5Z" stroke="#A6A6A6" stroke-width="2" stroke-linecap="round" stroke-linejoin="round"/>
<path d="M18 19.5C18 19.7652 18.1054 20.0196 18.2929 20.2071C18.4804 20.3946 18.7348 20.5 19 20.5C19.2652 20.5 19.5196 20.3946 19.7071 20.2071C19.8946 20.0196 20 19.7652 20 19.5C20 19.2348 19.8946 18.9804 19.7071 18.7929C19.5196 18.6054 19.2652 18.5 19 18.5C18.7348 18.5 18.4804 18.6054 18.2929 18.7929C18.1054 18.9804 18 19.2348 18 19.5Z" stroke="#A6A6A6" stroke-width="2" stroke-linecap="round" stroke-linejoin="round"/>
</svg>
